<?xml version="1.0" encoding="UTF-8" standalone="no"?>
<!-- Created with Inkscape (http://www.inkscape.org/) -->

<svg
   xmlns:dc="http://purl.org/dc/elements/1.1/"
   xmlns:cc="http://creativecommons.org/ns#"
   xmlns:rdf="http://www.w3.org/1999/02/22-rdf-syntax-ns#"
   xmlns:svg="http://www.w3.org/2000/svg"
   xmlns="http://www.w3.org/2000/svg"
   xmlns:sodipodi="http://sodipodi.sourceforge.net/DTD/sodipodi-0.dtd"
   xmlns:inkscape="http://www.inkscape.org/namespaces/inkscape"
   id="svg2"
   version="1.1"
   inkscape:version="0.91 r13725"
   sodipodi:docname="g33k3rylogo2016_global.svg"
   width="311.80682"
   height="62.523235"
   viewBox="0 0 311.80682 62.523235">
  <defs
     id="defs4" />
  <sodipodi:namedview
     id="base"
     pagecolor="#ffffff"
     bordercolor="#666666"
     borderopacity="1.0"
     inkscape:pageopacity="0.0"
     inkscape:pageshadow="2"
     inkscape:zoom="2.8"
     inkscape:cx="179.15589"
     inkscape:cy="49.399434"
     inkscape:document-units="px"
     inkscape:current-layer="layer1"
     showgrid="false"
     inkscape:window-width="1368"
     inkscape:window-height="849"
     inkscape:window-x="-8"
     inkscape:window-y="-8"
     inkscape:window-maximized="1"
     inkscape:snap-bbox="true"
     fit-margin-top="0"
     fit-margin-left="0"
     fit-margin-right="0"
     fit-margin-bottom="0" />
  <metadata
     id="metadata7">
    <rdf:RDF>
      <cc:Work
         rdf:about="">
        <dc:format>image/svg+xml</dc:format>
        <dc:type
           rdf:resource="http://purl.org/dc/dcmitype/StillImage" />
        <dc:title></dc:title>
      </cc:Work>
    </rdf:RDF>
  </metadata>
  <g
     inkscape:label="Layer 1"
     inkscape:groupmode="layer"
     id="layer1"
     transform="translate(-180.2913,-670.965)">
    <g
       style="font-style:normal;font-weight:normal;font-size:40px;line-height:125%;font-family:Sans;letter-spacing:0px;word-spacing:0px;fill:#000000;fill-opacity:0.7248677;stroke:none"
       id="text3809">
      <path
         d="m 428.55682,731.07489 c -0.0161,0.36817 0.0398,0.7002 0.16773,0.99609 0.12793,0.2959 0.31201,0.54383 0.55224,0.74378 0.24024,0.19995 0.5243,0.35595 0.85218,0.46802 0.32788,0.11206 0.6759,0.16003 1.04406,0.14392 0.35205,0 0.672,-0.0599 0.95984,-0.17981 0.28784,-0.11988 0.53577,-0.2638 0.74378,-0.43177 0.208,-0.16796 0.37597,-0.34802 0.5039,-0.54016 0.12793,-0.19213 0.21606,-0.36023 0.26441,-0.50427 0.0801,-0.23974 0.12011,-0.47168 0.12012,-0.6958 0.0156,-0.36816 -0.12452,-0.74023 -0.42041,-1.11621 -0.29591,-0.37597 -0.77198,-0.66797 -1.42823,-0.87598 -0.4956,-0.12792 -0.94348,-0.15991 -1.34363,-0.0959 -0.40014,0.064 -0.74414,0.19592 -1.03198,0.39587 -0.28784,0.19995 -0.51977,0.448 -0.6958,0.74414 -0.17602,0.29615 -0.27209,0.61218 -0.28821,0.94812 z"
         style="font-variant:normal;font-stretch:normal;font-size:24px;font-family:'Komika Axis';-inkscape-font-specification:'Komika Axis';fill:#000000"
         id="path3230"
         inkscape:connector-curvature="0" />
      <path
         d="m 448.57465,727.78705 c -1.52003,-0.43213 -2.75197,-0.16821 -3.6958,0.79175 -1.31202,1.34424 -2.2881,1.91235 -2.92823,1.70434 -0.33594,-0.0962 -0.59192,-0.36828 -0.76794,-0.81628 -0.17603,-0.448 -0.28003,-0.99597 -0.31201,-1.64392 -0.032,-0.64795 0.004,-1.36792 0.10803,-2.15992 0.104,-0.79198 0.26,-1.58812 0.46802,-2.38842 0.22411,-0.76806 0.5321,-1.60009 0.92395,-2.4961 0.39184,-0.89598 0.81176,-1.71593 1.25976,-2.45984 0.44799,-0.74388 0.88806,-1.34788 1.32019,-1.81201 0.43212,-0.46409 0.8081,-0.64805 1.12793,-0.55188 0.32031,0.12795 0.51244,0.39992 0.57642,0.81592 0.064,0.41603 0.0879,0.88014 0.0718,1.39233 -10e-6,0.28811 0.0239,0.60012 0.0718,0.93604 0.064,0.39992 0.16796,0.75184 0.31201,1.05579 0.14404,0.30396 0.33605,0.57191 0.57605,0.80383 0.23998,0.23194 0.54394,0.4319 0.91187,0.59985 0.36791,0.16798 0.80797,0.30006 1.32019,0.39624 0.27196,0.0479 0.4879,0.0639 0.64783,0.048 0.1599,-0.0159 0.28392,-0.0558 0.37207,-0.11975 0.0881,-0.064 0.15623,-0.15197 0.20434,-0.26404 0.0481,-0.11205 0.0961,-0.23205 0.14392,-0.35999 0.0957,-0.28807 0.18358,-0.61217 0.26368,-0.97229 0.0801,-0.36009 0.14415,-0.73607 0.19226,-1.12793 0.0481,-0.39183 0.0841,-0.78782 0.10803,-1.18799 0.0239,-0.40013 0.0278,-0.78404 0.0117,-1.15173 -0.0161,-0.3203 -0.0481,-0.62034 -0.0959,-0.90015 -0.0479,-0.27976 -0.13185,-0.54771 -0.25195,-0.80383 -0.12013,-0.25608 -0.28017,-0.50816 -0.48011,-0.75622 -0.19996,-0.24803 -0.45179,-0.49999 -0.75549,-0.75586 -0.32032,-0.20799 -0.68043,-0.41197 -1.08032,-0.61194 -0.39991,-0.19993 -0.82386,-0.38389 -1.27185,-0.55188 -0.44801,-0.16795 -0.912,-0.31199 -1.39197,-0.43213 -0.47999,-0.1201 -0.9441,-0.20408 -1.39233,-0.25195 -0.60792,-0.0483 -1.25587,0.0155 -1.94385,0.19152 -0.68799,0.17605 -1.36793,0.55215 -2.0398,1.1283 -0.83203,0.71975 -1.57202,1.55568 -2.21997,2.50781 -0.64795,0.95217 -1.20398,1.96425 -1.66809,3.03626 -0.46411,1.07203 -0.82812,2.17201 -1.09204,3.29992 -0.26391,1.12794 -0.41992,2.22389 -0.46802,3.28785 -0.0481,1.06397 0.0118,2.06397 0.17981,3 0.16797,0.93603 0.45997,1.74805 0.87598,2.43603 0.24024,0.44825 0.57629,0.84033 1.00818,1.17627 0.43188,0.33594 0.86389,0.5918 1.29602,0.76758 0.47998,0.16016 1.02392,0.33227 1.63184,0.51636 0.6079,0.18408 1.28783,0.30004 2.03979,0.3479 0.35205,0.0322 0.71606,0.0322 1.09204,0 0.37597,-0.0322 0.73596,-0.0883 1.07996,-0.16809 0.34398,-0.0798 0.67199,-0.18384 0.98401,-0.31202 0.312,-0.12817 0.58007,-0.26403 0.8042,-0.40759 0.44823,-0.32031 0.89635,-0.72046 1.34436,-1.20044 0.44798,-0.47998 0.81578,-1.00805 1.10339,-1.58423 0.27245,-0.4956 0.39659,-0.91149 0.37244,-1.24768 -0.0242,-0.33617 -0.34023,-0.5841 -0.94812,-0.74377 z"
         style="font-variant:normal;font-stretch:normal;font-size:24px;font-family:'Komika Axis';-inkscape-font-specification:'Komika Axis';fill:#000000"
         id="path3232"
         inkscape:connector-curvature="0" />
      <path
         d="m 465.60419,713.86664 c -0.54396,-0.43162 -1.22792,-0.79954 -2.05188,-1.10376 -0.82399,-0.30418 -1.69203,-0.5283 -2.60413,-0.67236 -0.70362,-0.1118 -1.44349,-0.0557 -2.2196,0.16845 -0.77613,0.22414 -1.44422,0.55202 -2.00428,0.98364 -0.83203,0.72024 -1.56396,1.53237 -2.1958,2.43641 -0.63183,0.90407 -1.16382,1.86 -1.59594,2.86779 -0.43213,1.00783 -0.76014,2.04384 -0.98401,3.10804 -0.22388,1.06422 -0.34387,2.10828 -0.35999,3.1322 -0.0161,1.02393 0.0719,1.99988 0.26404,2.92785 0.19214,0.92799 0.4801,1.7599 0.86389,2.49573 0.24024,0.44825 0.56836,0.84839 0.98438,1.20044 0.41601,0.35205 0.83984,0.6399 1.27148,0.86353 0.52832,0.27197 1.11242,0.47595 1.75232,0.61194 0.63989,0.13598 1.26379,0.2362 1.8717,0.30065 0.91211,0.0957 1.72021,0.0596 2.42432,-0.10839 0.70409,-0.16797 1.37597,-0.5 2.01563,-0.9961 0.94432,-0.83203 1.74046,-1.84802 2.38842,-3.04797 0.64794,-1.19995 1.1599,-2.47595 1.53589,-3.828 0.37596,-1.35205 0.61193,-2.71203 0.70789,-4.07996 0.0959,-1.36791 0.056,-2.63585 -0.11975,-3.80383 -0.12795,-0.70409 -0.33193,-1.33214 -0.61194,-1.88416 -0.28004,-0.55198 -0.72426,-1.07603 -1.33264,-1.57214 z m -3.86353,2.40014 c 0.31982,0.0962 0.55578,0.42824 0.70789,0.9961 0.15209,0.56788 0.22814,1.25197 0.22815,2.05224 -10e-6,0.78371 -0.064,1.62758 -0.1919,2.53162 -0.12794,0.90406 -0.29591,1.73207 -0.5039,2.48401 -0.24025,0.91212 -0.5243,1.75611 -0.85218,2.53198 -0.32789,0.77589 -0.67591,1.42786 -1.04406,1.95593 -0.36818,0.52808 -0.73622,0.92017 -1.10413,1.17627 -0.36793,0.25611 -0.71985,0.32801 -1.05579,0.2157 -0.36817,-0.11181 -0.64819,-0.41577 -0.84008,-0.91186 -0.1919,-0.49609 -0.30384,-1.09216 -0.33582,-1.78821 -0.032,-0.69604 0,-1.44799 0.096,-2.25586 0.0959,-0.80785 0.25597,-1.58776 0.4801,-2.33972 0.22363,-0.76806 0.5155,-1.56408 0.87561,-2.38806 0.3601,-0.82396 0.74816,-1.57201 1.16419,-2.24414 0.416,-0.67211 0.83202,-1.20409 1.24804,-1.59595 0.41601,-0.39183 0.79199,-0.53185 1.12793,-0.42005 z"
         style="font-variant:normal;font-stretch:normal;font-size:24px;font-family:'Komika Axis';-inkscape-font-specification:'Komika Axis';fill:#000000"
         id="path3234"
         inkscape:connector-curvature="0" />
      <path
         d="m 473.74945,721.09052 c 0.23974,1.6001 0.50769,3.15223 0.80383,4.65637 0.29614,1.50415 0.60412,2.83215 0.92395,3.98401 0.0801,0.27197 0.15613,0.49597 0.22815,0.67199 0.072,0.17603 0.156,0.32398 0.25196,0.44385 0.0959,0.11988 0.20788,0.21582 0.33581,0.28784 0.12792,0.072 0.28002,0.14002 0.4563,0.20398 0.47997,0.16016 1.03979,0.3042 1.67944,0.43213 0.208,0.0483 0.37609,0.0685 0.50428,0.0604 0.12816,-0.008 0.23216,-0.0361 0.31201,-0.0842 0.0798,-0.0481 0.14782,-0.12415 0.20398,-0.22815 0.0561,-0.104 0.12425,-0.2439 0.20434,-0.41968 0.25585,-0.56006 0.59582,-1.26013 1.0199,-2.10022 0.42406,-0.84008 0.88805,-1.73205 1.39197,-2.6759 0.50389,-0.94384 1.02379,-1.9038 1.55969,-2.87989 0.53587,-0.97606 1.04381,-1.88011 1.5238,-2.71215 -0.27198,0.94385 -0.52394,1.91981 -0.75585,2.92785 -0.23195,1.00807 -0.44387,1.97206 -0.63575,2.89197 -0.19191,0.91993 -0.35987,1.75989 -0.5039,2.5199 -0.14406,0.76001 -0.24806,1.38 -0.31201,1.85998 -0.0801,0.4004 -0.0602,0.72059 0.0597,0.96057 0.11986,0.24 0.36388,0.44788 0.73205,0.62366 0.28807,0.16016 0.62413,0.29614 1.00818,0.40796 0.38402,0.11182 0.75987,0.20776 1.12757,0.28784 0.41599,0.0962 0.69602,0.0803 0.84008,-0.0476 0.14403,-0.12792 0.2722,-0.33593 0.38452,-0.62402 0.12792,-0.56006 0.30382,-1.26416 0.52771,-2.1123 0.22386,-0.84814 0.47582,-1.77612 0.75586,-2.78394 0.28001,-1.00781 0.57603,-2.06371 0.88807,-3.16772 0.31199,-1.104 0.624,-2.19201 0.93603,-3.26404 0.31199,-1.07201 0.61997,-2.09606 0.92395,-3.07215 0.30393,-0.97605 0.57603,-1.84007 0.81629,-2.59204 0.17575,-0.52781 0.20371,-0.9398 0.0839,-1.23596 -0.1199,-0.29612 -0.41201,-0.55601 -0.87635,-0.77966 -0.70363,-0.32029 -1.41945,-0.60045 -2.14746,-0.84046 -0.72804,-0.23996 -1.42018,-0.44785 -2.07641,-0.62365 -0.56008,-0.16014 -1.02004,-0.22422 -1.37989,-0.19226 -0.35987,0.032 -0.68385,0.17201 -0.97192,0.42004 -0.2881,0.24807 -0.56813,0.60805 -0.84009,1.07996 -0.27198,0.47194 -0.59205,1.07607 -0.9602,1.81237 -0.36769,0.63967 -0.74757,1.31948 -1.13965,2.03943 -0.3921,0.71999 -0.77211,1.43996 -1.14001,2.15992 -0.36794,0.71998 -0.72389,1.42408 -1.06788,2.1123 -0.344,0.68824 -0.64417,1.3202 -0.90051,1.89587 -0.25587,-1.64793 -0.45582,-2.94395 -0.59985,-3.88806 -0.14405,-0.94407 -0.25209,-1.6721 -0.3241,-2.18408 -0.072,-0.51195 -0.12,-0.8679 -0.14392,-1.06787 -0.0239,-0.19993 -0.0359,-0.37193 -0.0359,-0.51599 -0.064,-0.3037 -0.12391,-0.57555 -0.17981,-0.81555 -0.0559,-0.23998 -0.14796,-0.46007 -0.27612,-0.66028 -0.12818,-0.20018 -0.30421,-0.38426 -0.52808,-0.55225 -0.22388,-0.16795 -0.52796,-0.32395 -0.91223,-0.46802 -0.60791,-0.22361 -1.2118,-0.4155 -1.81164,-0.57568 -0.59986,-0.16013 -1.33192,-0.30418 -2.19617,-0.43213 -0.56006,-0.0801 -0.97205,-0.0521 -1.23596,0.0839 -0.26392,0.13601 -0.4679,0.47598 -0.61194,1.0199 -0.14404,0.75197 -0.29199,1.62001 -0.44385,2.60413 -0.15185,0.98414 -0.30383,2.02821 -0.45593,3.1322 -0.1521,1.10402 -0.29212,2.22401 -0.42005,3.35999 -0.12792,1.13599 -0.24389,2.23194 -0.3479,3.28784 -0.104,1.05591 -0.18408,2.03589 -0.24023,2.93994 -0.0562,0.90405 -0.0842,1.66809 -0.0842,2.29211 -0.0317,0.41602 0.0244,0.73609 0.16846,0.96021 0.14404,0.22412 0.41601,0.43213 0.81592,0.62402 0.31982,0.15967 0.66772,0.29956 1.0437,0.41968 0.37597,0.12012 0.74804,0.22021 1.11621,0.30029 0.38379,0.0801 0.6477,0.0761 0.79175,-0.0121 0.14404,-0.0881 0.24804,-0.27625 0.31201,-0.56433 0.064,-0.68799 0.156,-1.47193 0.27612,-2.35181 0.12011,-0.87988 0.26013,-1.82385 0.42004,-2.83191 0.15991,-1.00805 0.33594,-2.05602 0.52808,-3.14392 0.19214,-1.08788 0.39221,-2.17602 0.60022,-3.2644 z"
         style="font-variant:normal;font-stretch:normal;font-size:24px;font-family:'Komika Axis';-inkscape-font-specification:'Komika Axis';fill:#000000"
         id="path3236"
         inkscape:connector-curvature="0" />
    </g>
    <g
       transform="scale(0.89882177,1.1125676)"
       style="font-style:normal;font-weight:normal;font-size:42.76467896px;line-height:125%;font-family:Sans;letter-spacing:0px;word-spacing:0px;fill:#000000;fill-opacity:0.7248677;stroke:none"
       id="text3815">
      <path
         d="m 241.67679,627.86146 c 0.16522,-0.66103 0.3204,-1.48767 0.46552,-2.47993 0.14504,-0.99219 0.26899,-2.02574 0.37184,-3.10063 0.10278,-1.07482 0.1646,-2.14968 0.18546,-3.22458 0.0208,-1.07482 0.0104,-2.04623 -0.0312,-2.91423 -0.20567,-1.65388 -0.59802,-3.14221 -1.17705,-4.46502 -0.57909,-1.32271 -1.57132,-2.54233 -2.97667,-3.65887 -0.74436,-0.61938 -1.58142,-1.18772 -2.51116,-1.70501 -0.92981,-0.5172 -1.92204,-0.97199 -2.97668,-1.36439 -1.0547,-0.3923 -2.13997,-0.73324 -3.2558,-1.02282 -1.11589,-0.28948 -2.21125,-0.49606 -3.28608,-0.61975 -0.74435,-0.12484 -1.55049,-0.18729 -2.41844,-0.18734 -0.86798,5e-5 -1.74634,0.0622 -2.6351,0.18639 -0.8888,0.12432 -1.76717,0.35172 -2.63511,0.6822 -0.86798,0.33058 -1.67412,0.78538 -2.41844,1.36439 -2.31499,1.6956 -4.39248,3.74218 -6.23248,6.13975 -1.84,2.39766 -3.43147,4.97095 -4.77442,7.71988 -1.34294,2.749 -2.40739,5.58059 -3.19335,8.49479 -0.78595,2.91426 -1.28207,5.77708 -1.48834,8.58847 -0.20626,2.81143 -0.10281,5.46735 0.31035,7.96777 0.41317,2.50045 1.15718,4.68107 2.23203,6.54188 0.57907,1.15813 1.3748,2.22289 2.38721,3.1943 1.01241,0.97141 2.05605,1.74602 3.13091,2.32382 3.01767,1.32338 6.11861,2.19198 9.30283,2.60577 1.81791,0.24727 3.55383,0.23655 5.20777,-0.0322 1.6539,-0.26871 3.22456,-0.81624 4.71197,-1.64256 2.31496,-1.36376 4.46468,-3.30658 6.44916,-5.82847 1.98442,-2.52187 3.74178,-5.643 5.2721,-9.36338 0.37213,-1.07485 0.54781,-1.98444 0.52703,-2.72878 -0.0208,-0.74431 -0.38261,-1.59209 -1.08527,-2.54333 -0.3722,-0.49578 -0.77527,-1.03289 -1.20922,-1.61134 -0.43401,-0.57841 -0.89953,-1.13634 -1.39656,-1.67379 -0.74309,-0.82757 -1.54892,-1.35491 -2.41748,-1.58202 -0.86863,-0.22705 -2.00562,-0.23715 -3.41098,-0.0303 -1.19852,0.20692 -2.62441,0.40341 -4.27767,0.58947 -1.65331,0.1861 -3.2451,0.44441 -4.77537,0.77492 -0.82634,0.12365 -1.57036,0.2372 -2.23204,0.34062 -0.6617,0.10347 -1.21995,0.24824 -1.67473,0.4343 -0.45481,0.1861 -0.77525,0.434 -0.96132,0.74369 -0.18609,0.30974 -0.1965,0.73331 -0.0312,1.27072 0.78594,2.35664 1.85071,4.03106 3.1943,5.02327 1.34355,0.99224 3.25546,1.42653 5.73573,1.30288 -0.66108,1.36378 -1.36378,2.63481 -2.10808,3.81311 -0.74435,1.17831 -1.50918,2.18063 -2.29449,3.00695 -0.78534,0.82634 -1.58108,1.42558 -2.38721,1.79774 -0.80615,0.37217 -1.58139,0.43462 -2.3257,0.18734 -0.86798,-0.29015 -1.54986,-1.0657 -2.04564,-2.32665 -0.49581,-1.26093 -0.78503,-2.78018 -0.86765,-4.55774 -0.0826,-1.77754 0.0309,-3.70995 0.34062,-5.79724 0.30971,-2.08725 0.81592,-4.12311 1.51862,-6.10759 0.78595,-2.48022 1.73686,-4.86743 2.85273,-7.16162 1.11585,-2.29414 2.26293,-4.3095 3.44125,-6.04609 1.17829,-1.73651 2.33579,-3.06968 3.47248,-3.9995 1.13666,-0.92973 2.11879,-1.27099 2.9464,-1.02376 0.41251,0.12368 0.69132,0.45421 0.83642,0.99159 0.14506,0.53748 0.30023,1.19917 0.46552,1.98509 0.0404,0.41383 0.0814,0.82731 0.12301,1.24044 0.0416,0.4132 0.0624,0.8475 0.0624,1.30289 -0.0417,0.4542 -0.0521,0.87777 -0.0312,1.27071 0.0208,0.39302 0.0728,0.79578 0.15612,1.20828 0.20561,2.10812 0.98022,3.80304 2.32382,5.08476 1.34354,1.28179 3.46235,2.12956 6.35643,2.54333 1.03319,0.082 1.74629,-0.0113 2.13931,-0.28007 0.39294,-0.26869 0.73388,-0.81621 1.02282,-1.64257 z"
         style="font-variant:normal;font-stretch:normal;font-size:62.00878143px;font-family:'Komika Axis';-inkscape-font-specification:'Komika Axis';fill:#000000"
         id="path3206"
         inkscape:connector-curvature="0" />
      <path
         d="m 269.64962,633.25658 c 2.02606,-0.82757 3.85565,-1.69585 5.48878,-2.60483 1.63308,-0.90894 3.04887,-1.90085 4.2474,-2.97574 0.99156,-0.86919 1.82861,-1.95477 2.51116,-3.25674 0.68247,-1.30191 1.08554,-2.73821 1.20922,-4.3089 0.12359,-1.57062 -0.0934,-3.22423 -0.65098,-4.96082 -0.55765,-1.73651 -1.55996,-3.51438 -3.00695,-5.33361 -1.44706,-1.69424 -2.89408,-2.97537 -4.34107,-3.84338 -1.44705,-0.86791 -2.87326,-1.45706 -4.27862,-1.76746 -1.40542,-0.31029 -2.74899,-0.41374 -4.03072,-0.31035 -1.28178,0.1035 -2.48027,0.25868 -3.59548,0.46552 -1.48868,0.33059 -2.9461,0.8267 -4.3723,1.48834 -1.42622,0.66175 -2.75938,1.40576 -3.9995,2.23204 -1.24013,0.82638 -2.37712,1.71515 -3.41097,2.66633 -1.03386,0.95127 -1.88132,1.86086 -2.54238,2.72878 -1.07486,1.3638 -0.86797,2.70737 0.62069,4.03072 0.74432,0.57784 1.65392,1.07364 2.72878,1.4874 1.07485,0.41383 2.19103,0.68254 3.34853,0.80614 1.15748,0.12367 2.29415,0.0924 3.41003,-0.0937 1.11584,-0.18605 2.08694,-0.5888 2.91328,-1.20827 0.62068,-0.37213 1.25146,-0.73388 1.89236,-1.08527 0.64086,-0.35131 1.29183,-0.68215 1.95291,-0.99254 0.66105,-0.31031 1.28111,-0.55821 1.86019,-0.7437 0.57904,-0.18541 1.11647,-0.27813 1.61229,-0.27817 0.7443,4e-5 1.26092,0.22712 1.54984,0.68124 0.49577,0.61948 0.47496,1.41521 -0.0625,2.38721 -0.53745,0.97208 -1.63281,2.04694 -3.28608,3.22458 -1.65331,1.17771 -3.87525,2.43834 -6.66583,3.78188 -2.79061,1.3436 -6.23217,2.65627 -10.3247,3.938 -1.65266,0.57908 -1.90056,1.73658 -0.7437,3.47247 1.28175,1.98448 2.84232,3.47281 4.68169,4.46502 1.83937,0.99225 3.73046,1.36409 5.67329,1.11555 1.53027,-0.20688 2.76031,-0.26902 3.6901,-0.1864 0.92976,0.0826 1.80844,0.45513 2.63606,1.11744 0.37214,0.33054 0.67176,0.78503 0.89887,1.36344 0.22706,0.57845 0.30969,1.23982 0.24789,1.98414 -0.0618,0.74434 -0.27882,1.52998 -0.65097,2.35693 -0.37218,0.82697 -0.95124,1.65361 -1.73718,2.47993 -0.82635,0.82634 -1.71481,1.47731 -2.66539,1.95292 -0.95061,0.47562 -2.01506,0.74433 -3.19335,0.80614 -1.17832,0.0618 -2.48058,-0.0829 -3.90677,-0.4343 -1.42622,-0.35134 -3.0281,-0.96099 -4.80565,-1.82896 -1.24013,-0.57779 -2.65592,-0.93923 -4.24739,-1.08432 -1.59148,-0.14507 -3.02809,0.17537 -4.30985,0.96132 -0.37216,0.2069 -0.66169,0.44471 -0.86859,0.71342 -0.20689,0.26872 -0.27912,0.58884 -0.21668,0.96037 0.0625,0.37154 0.31067,0.81593 0.74465,1.33316 0.43398,0.51725 1.10577,1.12722 2.01536,1.82991 2.93441,2.39699 5.82783,4.02947 8.68024,4.89743 2.85241,0.86796 5.58055,1.30194 8.18445,1.30194 3.43146,0 6.53208,-0.4753 9.30189,-1.42589 2.76975,-0.9506 5.27113,-2.72783 7.50414,-5.33172 0.94993,-1.15812 1.67313,-2.41906 2.16959,-3.78283 0.49639,-1.36374 0.69288,-2.74863 0.58947,-4.15467 -0.10348,-1.406 -0.53778,-2.81171 -1.30289,-4.21712 -0.76518,-1.40537 -1.93307,-2.76913 -3.5037,-4.09127 -0.82636,-0.70394 -1.70473,-1.25209 -2.63511,-1.64446 -0.93043,-0.39233 -1.93307,-0.75377 -3.0079,-1.08432 z"
         style="font-variant:normal;font-stretch:normal;font-size:62.00878143px;font-family:'Komika Axis';-inkscape-font-specification:'Komika Axis';fill:#000000"
         id="path3208"
         inkscape:connector-curvature="0" />
      <path
         d="m 309.85844,633.25658 c 2.02605,-0.82757 3.85565,-1.69585 5.48878,-2.60483 1.63307,-0.90894 3.04887,-1.90085 4.2474,-2.97574 0.99156,-0.86919 1.82861,-1.95477 2.51116,-3.25674 0.68247,-1.30191 1.08554,-2.73821 1.20921,-4.3089 0.1236,-1.57062 -0.0934,-3.22423 -0.65097,-4.96082 -0.55765,-1.73651 -1.55997,-3.51438 -3.00696,-5.33361 -1.44705,-1.69424 -2.89407,-2.97537 -4.34106,-3.84338 -1.44706,-0.86791 -2.87326,-1.45706 -4.27863,-1.76746 -1.40541,-0.31029 -2.74898,-0.41374 -4.03072,-0.31035 -1.28177,0.1035 -2.48027,0.25868 -3.59548,0.46552 -1.48867,0.33059 -2.9461,0.8267 -4.37229,1.48834 -1.42622,0.66175 -2.75938,1.40576 -3.9995,2.23204 -1.24013,0.82638 -2.37712,1.71515 -3.41097,2.66633 -1.03387,0.95127 -1.88133,1.86086 -2.54239,2.72878 -1.07486,1.3638 -0.86796,2.70737 0.6207,4.03072 0.74432,0.57784 1.65391,1.07364 2.72878,1.4874 1.07485,0.41383 2.19102,0.68254 3.34852,0.80614 1.15749,0.12367 2.29416,0.0924 3.41003,-0.0937 1.11585,-0.18605 2.08694,-0.5888 2.91329,-1.20827 0.62067,-0.37213 1.25146,-0.73388 1.89236,-1.08527 0.64086,-0.35131 1.29183,-0.68215 1.95291,-0.99254 0.66104,-0.31031 1.2811,-0.55821 1.86019,-0.7437 0.57904,-0.18541 1.11646,-0.27813 1.61229,-0.27817 0.7443,4e-5 1.26091,0.22712 1.54984,0.68124 0.49577,0.61948 0.47495,1.41521 -0.0624,2.38721 -0.53746,0.97208 -1.63281,2.04694 -3.28608,3.22458 -1.65331,1.17771 -3.87525,2.43834 -6.66583,3.78188 -2.79061,1.3436 -6.23217,2.65627 -10.32471,3.938 -1.65266,0.57908 -1.90056,1.73658 -0.74369,3.47247 1.28175,1.98448 2.84231,3.47281 4.68169,4.46502 1.83936,0.99225 3.73046,1.36409 5.67329,1.11555 1.53027,-0.20688 2.7603,-0.26902 3.6901,-0.1864 0.92976,0.0826 1.80844,0.45513 2.63605,1.11744 0.37214,0.33054 0.67177,0.78503 0.89887,1.36344 0.22706,0.57845 0.3097,1.23982 0.2479,1.98414 -0.0618,0.74434 -0.27883,1.52998 -0.65097,2.35693 -0.37218,0.82697 -0.95125,1.65361 -1.73718,2.47993 -0.82635,0.82634 -1.71481,1.47731 -2.66539,1.95292 -0.95061,0.47562 -2.01506,0.74433 -3.19335,0.80614 -1.17832,0.0618 -2.48058,-0.0829 -3.90678,-0.4343 -1.42621,-0.35134 -3.02809,-0.96099 -4.80564,-1.82896 -1.24013,-0.57779 -2.65593,-0.93923 -4.2474,-1.08432 -1.59147,-0.14507 -3.02808,0.17537 -4.30984,0.96132 -0.37216,0.2069 -0.66169,0.44471 -0.86859,0.71342 -0.2069,0.26872 -0.27912,0.58884 -0.21668,0.96037 0.0625,0.37154 0.31067,0.81593 0.74464,1.33316 0.43399,0.51725 1.10577,1.12722 2.01536,1.82991 2.93442,2.39699 5.82783,4.02947 8.68025,4.89743 2.8524,0.86796 5.58055,1.30194 8.18445,1.30194 3.43146,0 6.53208,-0.4753 9.30188,-1.42589 2.76976,-0.9506 5.27114,-2.72783 7.50415,-5.33172 0.94993,-1.15812 1.67312,-2.41906 2.16959,-3.78283 0.49639,-1.36374 0.69288,-2.74863 0.58947,-4.15467 -0.10349,-1.406 -0.53778,-2.81171 -1.30289,-4.21712 -0.76518,-1.40537 -1.93308,-2.76913 -3.5037,-4.09127 -0.82636,-0.70394 -1.70473,-1.25209 -2.63511,-1.64446 -0.93044,-0.39233 -1.93307,-0.75377 -3.0079,-1.08432 z"
         style="font-variant:normal;font-stretch:normal;font-size:62.00878143px;font-family:'Komika Axis';-inkscape-font-specification:'Komika Axis';fill:#000000"
         id="path3210"
         inkscape:connector-curvature="0" />
      <path
         d="m 346.90513,638.71224 c 1.81916,-1.7359 3.74148,-3.59608 5.76696,-5.58056 2.02543,-1.98443 3.97865,-3.97897 5.85969,-5.98363 1.88097,-2.00461 3.6172,-3.96824 5.20871,-5.89091 1.59143,-1.9226 2.86278,-3.66925 3.81405,-5.23994 0.78465,-1.28172 1.22873,-2.35658 1.33222,-3.22458 0.1034,-0.86792 -0.0101,-1.75669 -0.34063,-2.66633 -0.53747,-1.11518 -1.10581,-2.14841 -1.70501,-3.09969 -0.59929,-0.95117 -1.35371,-1.81913 -2.26326,-2.60388 -0.868,-0.74427 -1.65333,-1.11644 -2.35599,-1.11649 -0.62072,5e-5 -1.28242,0.45485 -1.98508,1.36439 -1.07489,1.32218 -2.44937,2.93415 -4.12345,4.83592 -1.67413,1.90187 -3.4725,3.90682 -5.39511,6.01486 -1.92266,2.10813 -3.8967,4.24743 -5.92213,6.41793 -2.02547,2.17057 -3.90616,4.20643 -5.64207,6.10759 0.70268,-3.22455 1.36406,-6.1905 1.98414,-8.89787 0.62005,-2.70729 1.24042,-5.115 1.86113,-7.22313 0.16525,-0.53738 0.26839,-1.00259 0.3094,-1.39562 0.041,-0.39293 -0.0211,-0.75468 -0.18639,-1.08526 -0.16529,-0.33049 -0.434,-0.65092 -0.80615,-0.96132 -0.37218,-0.3103 -0.86797,-0.67237 -1.48739,-1.08621 -1.11651,-0.74302 -2.42917,-1.4454 -3.938,-2.10714 -1.50885,-0.66165 -2.92496,-1.15776 -4.24834,-1.48834 -1.1985,-0.37211 -2.12859,-0.42384 -2.79028,-0.15518 -0.6617,0.26877 -1.15781,0.98156 -1.48834,2.13837 -0.41254,1.94413 -0.8462,4.23893 -1.301,6.8844 -0.4548,2.64555 -0.90959,5.44624 -1.36439,8.40206 -0.45479,2.9559 -0.88877,5.97358 -1.30194,9.05304 -0.41316,3.07953 -0.78533,6.02498 -1.11649,8.83637 -0.33116,2.81143 -0.59988,5.38472 -0.80615,7.71987 -0.20626,2.33518 -0.33021,4.22628 -0.37184,5.67329 -0.0833,1.53029 0.28858,2.66728 1.11554,3.41098 0.82696,0.74369 2.17085,1.36407 4.03167,1.86113 0.90833,0.24727 1.74507,0.48476 2.51021,0.71247 0.76514,0.22772 1.41643,0.35167 1.95386,0.37185 0.53742,0.0202 0.9509,-0.0833 1.24044,-0.31035 0.28953,-0.22708 0.43429,-0.65097 0.4343,-1.27166 0.33052,-1.85955 0.70237,-3.92632 1.11554,-6.20031 0.41316,-2.27397 0.88846,-4.77472 1.42589,-7.50225 0.86796,1.24014 1.80846,2.49067 2.82151,3.7516 1.01303,1.26095 1.98444,2.44935 2.91423,3.5652 0.92976,1.11586 1.78763,2.10777 2.57361,2.97573 0.78594,0.86797 1.406,1.54984 1.86019,2.04564 1.11647,1.19976 2.23264,1.88227 3.34852,2.04753 1.11584,0.16527 2.2112,0.10345 3.28608,-0.18545 0.70267,-0.0833 1.41577,-0.22834 2.13931,-0.43524 0.72348,-0.2069 1.35395,-0.4548 1.89141,-0.7437 0.90957,-0.41379 1.43659,-0.83768 1.58107,-1.27166 0.14442,-0.43398 -0.13471,-1.00232 -0.83737,-1.70502 -0.66109,-0.74432 -1.42561,-1.67441 -2.29354,-2.79028 -0.86799,-1.11585 -1.77758,-2.33516 -2.72878,-3.65793 -0.95125,-1.32274 -1.91256,-2.69722 -2.88395,-4.12344 -0.97143,-1.4262 -1.8703,-2.82181 -2.69661,-4.18685 z"
         style="font-variant:normal;font-stretch:normal;font-size:62.00878143px;font-family:'Komika Axis';-inkscape-font-specification:'Komika Axis';fill:#000000"
         id="path3212"
         inkscape:connector-curvature="0" />
      <path
         d="m 391.24497,633.25658 c 2.02606,-0.82757 3.85565,-1.69585 5.48878,-2.60483 1.63308,-0.90894 3.04888,-1.90085 4.2474,-2.97574 0.99156,-0.86919 1.82862,-1.95477 2.51116,-3.25674 0.68247,-1.30191 1.08555,-2.73821 1.20922,-4.3089 0.12359,-1.57062 -0.0934,-3.22423 -0.65097,-4.96082 -0.55765,-1.73651 -1.55997,-3.51438 -3.00696,-5.33361 -1.44706,-1.69424 -2.89408,-2.97537 -4.34107,-3.84338 -1.44705,-0.86791 -2.87326,-1.45706 -4.27862,-1.76746 -1.40541,-0.31029 -2.74899,-0.41374 -4.03072,-0.31035 -1.28178,0.1035 -2.48027,0.25868 -3.59548,0.46552 -1.48867,0.33059 -2.9461,0.8267 -4.37229,1.48834 -1.42622,0.66175 -2.75939,1.40576 -3.9995,2.23204 -1.24014,0.82638 -2.37713,1.71515 -3.41098,2.66633 -1.03386,0.95127 -1.88132,1.86086 -2.54238,2.72878 -1.07486,1.3638 -0.86796,2.70737 0.62069,4.03072 0.74433,0.57784 1.65392,1.07364 2.72878,1.4874 1.07485,0.41383 2.19103,0.68254 3.34853,0.80614 1.15748,0.12367 2.29416,0.0924 3.41003,-0.0937 1.11584,-0.18605 2.08694,-0.5888 2.91328,-1.20827 0.62068,-0.37213 1.25147,-0.73388 1.89236,-1.08527 0.64086,-0.35131 1.29183,-0.68215 1.95291,-0.99254 0.66105,-0.31031 1.28111,-0.55821 1.86019,-0.7437 0.57904,-0.18541 1.11647,-0.27813 1.61229,-0.27817 0.7443,4e-5 1.26092,0.22712 1.54984,0.68124 0.49577,0.61948 0.47496,1.41521 -0.0625,2.38721 -0.53745,0.97208 -1.63281,2.04694 -3.28608,3.22458 -1.6533,1.17771 -3.87525,2.43834 -6.66583,3.78188 -2.7906,1.3436 -6.23217,2.65627 -10.3247,3.938 -1.65266,0.57908 -1.90056,1.73658 -0.7437,3.47247 1.28176,1.98448 2.84232,3.47281 4.6817,4.46502 1.83936,0.99225 3.73045,1.36409 5.67329,1.11555 1.53027,-0.20688 2.7603,-0.26902 3.69009,-0.1864 0.92976,0.0826 1.80845,0.45513 2.63606,1.11744 0.37214,0.33054 0.67176,0.78503 0.89887,1.36344 0.22706,0.57845 0.30969,1.23982 0.2479,1.98414 -0.0618,0.74434 -0.27883,1.52998 -0.65097,2.35693 -0.37219,0.82697 -0.95125,1.65361 -1.73719,2.47993 -0.82635,0.82634 -1.71481,1.47731 -2.66539,1.95292 -0.95061,0.47562 -2.01506,0.74433 -3.19335,0.80614 -1.17832,0.0618 -2.48058,-0.0829 -3.90677,-0.4343 -1.42622,-0.35134 -3.0281,-0.96099 -4.80564,-1.82896 -1.24013,-0.57779 -2.65593,-0.93923 -4.2474,-1.08432 -1.59147,-0.14507 -3.02809,0.17537 -4.30985,0.96132 -0.37216,0.2069 -0.66169,0.44471 -0.86859,0.71342 -0.20689,0.26872 -0.27912,0.58884 -0.21667,0.96037 0.0625,0.37154 0.31066,0.81593 0.74464,1.33316 0.43398,0.51725 1.10577,1.12722 2.01536,1.82991 2.93442,2.39699 5.82783,4.02947 8.68025,4.89743 2.8524,0.86796 5.58055,1.30194 8.18444,1.30194 3.43146,0 6.53209,-0.4753 9.30189,-1.42589 2.76975,-0.9506 5.27113,-2.72783 7.50414,-5.33172 0.94993,-1.15812 1.67313,-2.41906 2.16959,-3.78283 0.4964,-1.36374 0.69289,-2.74863 0.58947,-4.15467 -0.10348,-1.406 -0.53778,-2.81171 -1.30289,-4.21712 -0.76517,-1.40537 -1.93307,-2.76913 -3.5037,-4.09127 -0.82636,-0.70394 -1.70472,-1.25209 -2.63511,-1.64446 -0.93043,-0.39233 -1.93306,-0.75377 -3.0079,-1.08432 z"
         style="font-variant:normal;font-stretch:normal;font-size:62.00878143px;font-family:'Komika Axis';-inkscape-font-specification:'Komika Axis';fill:#000000"
         id="path3214"
         inkscape:connector-curvature="0" />
      <path
         d="m 418.92827,642.99086 c 1.07485,1.32341 2.27366,2.63607 3.59643,3.938 1.32274,1.30195 2.6455,2.55248 3.96827,3.7516 1.32274,1.19913 2.60418,2.2948 3.84433,3.28703 1.2401,0.99223 2.33577,1.81887 3.28702,2.47993 1.447,0.86796 2.71835,1.35367 3.81405,1.45712 1.09564,0.10345 2.09828,0.0309 3.0079,-0.21762 0.74303,-0.12364 1.37319,-0.23718 1.89047,-0.34063 0.51721,-0.10345 1.14736,-0.4447 1.89046,-1.02376 0.62066,-0.45417 0.97232,-0.88783 1.05499,-1.301 0.0826,-0.41316 -0.28925,-0.97109 -1.11554,-1.67379 -1.03453,-0.82759 -2.14061,-1.79931 -3.31825,-2.91518 -1.17771,-1.11585 -2.36611,-2.27334 -3.5652,-3.47247 -1.19916,-1.19912 -2.36706,-2.39792 -3.5037,-3.59643 -1.13671,-1.19848 -2.18066,-2.33515 -3.13186,-3.41003 4.62994,-2.0677 8.60894,-4.30036 11.937,-6.698 3.32798,-2.39759 5.71551,-5.0226 7.16257,-7.87505 0.94992,-1.77752 1.15619,-4.05087 0.6188,-6.82005 -0.6611,-2.60511 -1.58079,-4.80687 -2.75906,-6.60528 -1.17834,-1.79832 -2.49101,-3.48284 -3.93799,-5.05354 -1.81796,-1.7775 -3.93614,-2.86245 -6.35454,-3.25486 -2.41846,-0.39229 -4.98166,-0.35097 -7.6896,0.12395 -2.70798,0.47504 -5.45694,1.27077 -8.24689,2.38721 -2.78998,1.11654 -5.46672,2.25322 -8.03022,3.41003 -0.53744,0.29021 -1.05437,1.02413 -1.55079,2.20176 -0.49643,1.17772 -0.95123,2.66574 -1.36439,4.46407 -0.41317,1.79841 -0.80583,3.82418 -1.17799,6.07731 -0.37217,2.2532 -0.71311,4.57859 -1.02282,6.97618 -0.30972,2.39764 -0.59893,4.79525 -0.86765,7.19285 -0.26871,2.39763 -0.50652,4.64039 -0.71342,6.72828 -0.20689,2.08791 -0.38257,3.9585 -0.52702,5.61178 -0.14445,1.6533 -0.2583,2.91392 -0.34157,3.78188 -0.082,1.07486 0.0215,1.93273 0.31035,2.57361 0.2889,0.64088 0.82633,1.18903 1.61229,1.64446 0.78596,0.41253 1.61291,0.70143 2.48088,0.8667 0.86796,0.16526 1.86018,0.39297 2.97668,0.68314 0.94995,0.20689 1.60061,0.20689 1.95196,0 0.35134,-0.2069 0.63047,-0.64088 0.83737,-1.30195 0.45542,-2.23297 0.92063,-4.50696 1.39562,-6.82195 0.47497,-2.31497 1.00199,-4.7334 1.58106,-7.2553 z m 6.63461,-25.17592 c 1.61227,-0.78466 3.14192,-1.32177 4.58897,-1.61135 1.44699,-0.28949 2.76975,-0.43425 3.96827,-0.43429 2.43859,4e-5 3.90643,0.5791 4.40352,1.73718 0.24723,0.70274 0.0403,1.69465 -0.6207,2.97573 -0.66109,1.28117 -1.73595,2.63483 -3.22457,4.061 -1.48869,1.42624 -3.33878,2.83195 -5.55029,4.21712 -2.21156,1.38524 -4.74353,2.55282 -7.59592,3.50276 0.78594,-2.72749 1.48895,-5.29006 2.10903,-7.68771 0.62004,-2.39758 1.26061,-4.65106 1.92169,-6.76044 z"
         style="font-variant:normal;font-stretch:normal;font-size:62.00878143px;font-family:'Komika Axis';-inkscape-font-specification:'Komika Axis';fill:#000000"
         id="path3216"
         inkscape:connector-curvature="0" />
      <path
         d="m 492.75482,613.22786 c 0.28886,-0.66228 0.51595,-1.23093 0.68125,-1.70596 0.16523,-0.47493 0.23745,-0.91932 0.21668,-1.33317 -0.0209,-0.41374 -0.1344,-0.81682 -0.34063,-1.20921 -0.2063,-0.3923 -0.49552,-0.81619 -0.86764,-1.27167 -0.66237,-0.61938 -1.45842,-1.32176 -2.38816,-2.10714 -0.92981,-0.78527 -1.87,-1.41574 -2.82056,-1.89141 -0.95062,-0.47556 -1.8394,-0.68245 -2.66633,-0.62069 -0.82699,0.0619 -1.42655,0.60939 -1.79868,1.64256 -2.14975,3.84532 -4.29947,7.62814 -6.44916,11.34847 -2.14974,3.72042 -4.34046,7.35816 -6.57216,10.91323 -1.11651,-3.55507 -2.19136,-6.9241 -3.22458,-10.10708 -1.03324,-3.1829 -2.02546,-6.0145 -2.97668,-8.4948 -0.66107,-1.32333 -1.27072,-2.30547 -1.82896,-2.9464 -0.55825,-0.64082 -1.45744,-1.10571 -2.69756,-1.39466 -1.24013,-0.28885 -2.44934,-0.40239 -3.62765,-0.34063 -1.17831,0.0619 -2.40834,0.13378 -3.69009,0.21573 -1.07486,0.20695 -1.72583,0.50689 -1.95292,0.89982 -0.22708,0.39303 -0.11354,1.14776 0.34063,2.2642 0.74433,2.31503 1.58169,4.80569 2.5121,7.47198 0.93041,2.66637 1.89141,5.39452 2.88301,8.18444 0.99159,2.79 1.9835,5.56987 2.97573,8.33963 0.99222,2.7698 1.92232,5.39481 2.79028,7.87504 -0.4958,2.85243 -0.86765,5.44654 -1.11554,7.78232 -0.24791,2.33581 -0.51631,4.39249 -0.8052,6.17004 -0.0833,1.07486 0.0199,1.89141 0.3094,2.44965 0.28953,0.55825 0.88909,1.1269 1.79869,1.70596 0.90958,0.37217 1.90181,0.73392 2.97668,1.08527 1.07484,0.35135 2.10807,0.65066 3.09968,0.89793 1.07484,0.24852 1.79835,0.29016 2.17053,0.12489 0.37215,-0.16527 0.66168,-0.66169 0.8686,-1.48928 0.45414,-2.23172 0.92944,-4.53598 1.42589,-6.91279 0.49641,-2.37679 1.09597,-4.95039 1.79868,-7.72082 1.81791,-2.60386 3.69859,-5.33201 5.64207,-8.18444 1.94342,-2.85239 3.78311,-5.62217 5.51906,-8.30935 1.73589,-2.68711 3.29645,-5.18818 4.68169,-7.5032 1.38517,-2.31494 2.42912,-4.25776 3.13185,-5.82846 z"
         style="font-variant:normal;font-stretch:normal;font-size:62.00878143px;font-family:'Komika Axis';-inkscape-font-specification:'Komika Axis';fill:#000000"
         id="path3218"
         inkscape:connector-curvature="0" />
    </g>
  </g>
</svg>
